<svg id="Group_2675" data-name="Group 2675" xmlns="http://www.w3.org/2000/svg" xmlns:xlink="http://www.w3.org/1999/xlink" width="188.81" height="95.153" viewBox="0 0 188.81 95.153">
  <defs>
    <clipPath id="clip-path">
      <rect id="Rectangle_1664" data-name="Rectangle 1664" width="188.81" height="95.153" fill="none"/>
    </clipPath>
  </defs>
  <g id="Group_2674" data-name="Group 2674" clip-path="url(#clip-path)">
    <path id="Path_6080" data-name="Path 6080" d="M203.3,170.337a.756.756,0,0,1-.726-.418.889.889,0,0,1-.044-.813l6.463-15.344a.849.849,0,0,1,.835-.593.836.836,0,0,1,.813.593l6.485,15.366a.853.853,0,0,1-.769,1.209.865.865,0,0,1-.473-.132.959.959,0,0,1-.34-.4L209.5,155.147h.682l-6.089,14.662a.827.827,0,0,1-.319.4.863.863,0,0,1-.472.132m1.451-4.088.659-1.473h8.925l.66,1.473Z" transform="translate(-113.266 -85.695)" fill="#c10062"/>
    <path id="Path_6081" data-name="Path 6081" d="M257.587,170.277a8.059,8.059,0,0,1-2.6-.407,6.278,6.278,0,0,1-2.077-1.154,5.091,5.091,0,0,1-1.341-1.737.661.661,0,0,1-.011-.648.87.87,0,0,1,.561-.407.8.8,0,0,1,.6.066,1.019,1.019,0,0,1,.451.462,3.529,3.529,0,0,0,.967,1.143,4.631,4.631,0,0,0,1.517.781,6.457,6.457,0,0,0,1.934.274,5.219,5.219,0,0,0,2.066-.385,3.232,3.232,0,0,0,1.418-1.121,3.039,3.039,0,0,0,.517-1.792,3.116,3.116,0,0,0-.989-2.308,5.274,5.274,0,0,0-3.1-1.231,7.2,7.2,0,0,1-4.023-1.593,4.056,4.056,0,0,1-1.451-3.155,3.874,3.874,0,0,1,.715-2.33,4.6,4.6,0,0,1,1.967-1.528,7.237,7.237,0,0,1,2.88-.539,5.959,5.959,0,0,1,3.924,1.4,5.829,5.829,0,0,1,1.2,1.374.883.883,0,0,1,.143.681.763.763,0,0,1-.385.506.918.918,0,0,1-1.187-.374,4.961,4.961,0,0,0-.824-.956,3.676,3.676,0,0,0-1.2-.714,5.167,5.167,0,0,0-1.693-.286,4.787,4.787,0,0,0-2.792.737,2.45,2.45,0,0,0-1.056,2.143,2.521,2.521,0,0,0,.4,1.374,3.127,3.127,0,0,0,1.308,1.077,8.266,8.266,0,0,0,2.451.67,7.223,7.223,0,0,1,4.078,1.682,4.455,4.455,0,0,1,1.329,3.352,4.955,4.955,0,0,1-.429,2.11,4.259,4.259,0,0,1-1.209,1.55,5.557,5.557,0,0,1-1.825.956,7.368,7.368,0,0,1-2.231.33" transform="translate(-140.694 -85.415)" fill="#c10062"/>
    <path id="Path_6082" data-name="Path 6082" d="M294.964,170.337a.756.756,0,0,1-.725-.418.889.889,0,0,1-.044-.813l6.463-15.344a.849.849,0,0,1,.835-.593.836.836,0,0,1,.813.593l6.485,15.366a.853.853,0,0,1-.769,1.209.863.863,0,0,1-.473-.132.958.958,0,0,1-.341-.4l-6.045-14.662h.682l-6.089,14.662a.827.827,0,0,1-.319.4.864.864,0,0,1-.472.132m1.451-4.088.659-1.473H306l.659,1.473Z" transform="translate(-164.552 -85.695)" fill="#c10062"/>
    <path id="Path_6083" data-name="Path 6083" d="M345.9,170.336a.828.828,0,0,1-.857-.857V154.025a.858.858,0,0,1,1.517-.549l10.508,13.8V154.025a.827.827,0,0,1,.857-.857.845.845,0,0,1,.6.242.817.817,0,0,1,.253.615v15.454a.815.815,0,0,1-.253.615.844.844,0,0,1-.6.242,1,1,0,0,1-.352-.066.609.609,0,0,1-.286-.22l-10.529-13.805v13.234a.814.814,0,0,1-.253.615.842.842,0,0,1-.6.242" transform="translate(-193.044 -85.694)" fill="#c10062"/>
    <path id="Path_6084" data-name="Path 6084" d="M398.844,170.336a.828.828,0,0,1-.857-.857V154.025a.857.857,0,1,1,1.715,0v15.454a.828.828,0,0,1-.857.857" transform="translate(-222.665 -85.694)" fill="#c10062"/>
    <path id="Path_6085" data-name="Path 6085" d="M81.575,123.779H77.5a5.733,5.733,0,0,1,2.765,2.7,10.863,10.863,0,0,1,1.314,5.392,16.686,16.686,0,0,1-2.489,8.848,34.533,34.533,0,0,1-7.95,8.365Q56.2,161.04,33.252,161.041A77.621,77.621,0,0,1,14.795,158.9Q5.462,156.617,0,152.468l.2.1c3.273,2.442,9.951,2.382,16.407,2.812a101.061,101.061,0,0,0,16.877,0c15.461-.859,27.925-5.151,37.788-14.046q4.423-4.01,4.424-8.088c0-2.674-1.615-4.568-4.009-6.74a97.815,97.815,0,0,0-8.492-7.169l18.378-1.574Z" transform="translate(-0.001 -65.888)" fill="#3b1040"/>
    <path id="Path_6086" data-name="Path 6086" d="M200.241,99.551a8.843,8.843,0,0,1,.76,3.6,7.962,7.962,0,0,1-2.074,5.5,6.6,6.6,0,0,1-5.115,2.316h-9.263v-5.988l7.4-.511q2.557,0,2.558-1.382a6.482,6.482,0,0,0-.9-2.7l2.267-5.53Z" transform="translate(-103.251 -53.067)" fill="#3b1040"/>
    <path id="Path_6087" data-name="Path 6087" d="M405.318,58.875q-.208,1.279-.484,3.768-.312,3.179-.38,8.779,0,6.43-.138,8.988a31.533,31.533,0,0,1-2.973,11.407q-.485,1.106-.9,1.106c-.162,0,.138.092,0,0-.324-.184-.376-.548-.423-1.4-.01-1.381.307-4.468.561-9.561a135.876,135.876,0,0,1-.38-13.792,61.359,61.359,0,0,1,3.975-9.506.758.758,0,0,1,1.141.207" transform="translate(-223.803 -32.73)" fill="#3b1040"/>
    <path id="Path_6088" data-name="Path 6088" d="M298.232,72.776q-.934.454-2.747,1.5-2.889,2.153-9.686,6.91a61.549,61.549,0,0,1-8.639,5.1,64.41,64.41,0,0,1-8.256,3.044,60.14,60.14,0,0,1-13.439,2.139q-3.229.227-9.629.226a43.361,43.361,0,0,1-12.349-1.331,11.164,11.164,0,0,1-4.05-2.209q-2.492-1.982-2.8-6.628-.34-5.55-.226-7.533.057-1.162.057-9.63.708-1.784,1.812-5.381a1.8,1.8,0,0,1,.51-.481,2.216,2.216,0,0,1,.764.368q0,.4-.481,7.817-.284,4.588-.17,7.647-.058,1.415.113,4.248a6.544,6.544,0,0,0,2.634,3.824,17.394,17.394,0,0,0,6.315,2.266,70.381,70.381,0,0,0,10.2.878q5.239.17,8.7-.057a86.673,86.673,0,0,0,17.7-2.747,56.447,56.447,0,0,0,13.878-6.373q6.713-4.05,11.3-7.364l1.1-.51q-.878,1.557-2.606,4.277" transform="translate(-126.654 -32.731)" fill="#3b1040"/>
    <path id="Path_6089" data-name="Path 6089" d="M197.757,68.565a5.514,5.514,0,0,1,1.293.19,6.707,6.707,0,0,1,1.484.57,5.071,5.071,0,0,1,1.218.875,1.532,1.532,0,0,1,.494,1.1,1.353,1.353,0,0,1-.152.608c-.1.2-.2.418-.3.647s-.2.482-.3.761a2.769,2.769,0,0,0-.152.951,2.542,2.542,0,0,0,.19.989,2.375,2.375,0,0,1,.19.913q0,1.447-2.13,1.446a3.4,3.4,0,0,1-1.788-.533,5.087,5.087,0,0,1-1.446-1.293,7.031,7.031,0,0,1-.951-1.788,6.2,6.2,0,0,1-.381-2.169,4.545,4.545,0,0,1,.571-2.244,2.256,2.256,0,0,1,2.169-1.027" transform="translate(-109.108 -38.361)" fill="#c10062"/>
    <path id="Path_6090" data-name="Path 6090" d="M269.072,13.547s-3.838,10.6-30.008,2.312c0,0-6.978-2.312-13.782-5.01s-62.632-26.4-81.823,6.166c0,0,21.633-25.052,75.717-3.084,0,0,43.267,21.968,49.9-.385" transform="translate(-80.262 0)" fill="#3b1040"/>
  </g>
</svg>
